# File created by Blade
# Date/Time:  Tue Apr 07 20:49:23 2015
# Frame Rate: 120.000 fps
#------------------------------------------------------
:FULLY-SPECIFIED
:DEGREES
731
root 0.611602 33.976384 -6.785391 -1.683530 51.688325 -108.552309
Spine -48.135097 -11.141019 34.917435
Head -12.398459 32.809895 32.450637
LeftShoulder -25.655457 38.487942 29.622099
LeftArm 77.992095 -68.413416 -73.114694
LeftForeArm 16.327542 -0.000000 12.252180
LeftHand 7.345874 -0.000000 15.703378
LeftHandThumb1 -26.253704 0.000000 33.147579
RightShoulder -23.850447 -5.637185 -28.090805
RightArm -22.220945 36.519168 21.026179
RightForeArm 59.919211 -0.000000 -2.369773
RightHand 2.826657 0.000000 14.292070
RightHandThumb1 -24.326973 -0.000000 -32.862282
LeftUpLeg -97.654067 40.623300 10.605365
LeftLeg -14.628294 -0.000000 0.000000
LeftFoot 5.373570 9.080262 -25.865308
LeftToeBase -0.420954 -0.000000 0.000000
RightUpLeg 33.492118 19.296652 -16.869320
RightLeg 58.135512 -0.000000 -0.000000
RightFoot 55.361998 10.793245 0.754390
RightToeBase 6.276623 -0.000000 -0.000000
732
root 0.617428 33.980943 -6.781889 -1.718258 51.639609 -108.663805
Spine -48.209675 -11.114363 34.938949
Head -12.269784 32.766557 32.622725
LeftShoulder -25.555399 38.447090 29.767620
LeftArm 77.877932 -68.394682 -72.898549
LeftForeArm 16.384397 -0.000000 12.323286
LeftHand 7.353640 -0.000000 15.772028
LeftHandThumb1 -26.253704 0.000000 33.147579
RightShoulder -23.800033 -5.655752 -28.087310
RightArm -22.181306 36.561023 20.985794
RightForeArm 59.857427 -0.000000 -2.402047
RightHand 2.855579 -0.000000 14.310056
RightHandThumb1 -24.326973 -0.000000 -32.862282
LeftUpLeg -97.889508 40.681055 10.367784
LeftLeg -14.602486 -0.000000 0.000000
LeftFoot 5.328635 8.849121 -26.528918
LeftToeBase 0.073715 -0.000000 -0.000000
RightUpLeg 33.482110 19.365066 -16.818451
RightLeg 58.094716 -0.000000 -0.000000
RightFoot 55.383922 10.734983 0.765878
RightToeBase 6.439288 -0.000000 -0.000000
733
root 0.622901 33.985432 -6.778174 -1.749852 51.605010 -108.767530
Spine -48.276310 -11.107789 34.954126
Head -12.197522 32.738602 32.767989
LeftShoulder -25.501989 38.429590 29.849614
LeftArm 77.795251 -68.407606 -72.651114
LeftForeArm 16.351945 -0.000000 12.362396
LeftHand 7.462695 -0.000000 15.826921
LeftHandThumb1 -26.253704 0.000000 33.147579
RightShoulder -23.742720 -5.631181 -28.098785
RightArm -22.167657 36.536636 20.941696
RightForeArm 59.777829 -0.000000 -2.426994
RightHand 2.827680 0.000000 14.349554
RightHandThumb1 -24.326973 -0.000000 -32.862282
LeftUpLeg -98.198822 40.700352 10.017481
LeftLeg -14.572752 -0.000000 0.000000
LeftFoot 5.361447 8.536059 -27.063019
LeftToeBase 0.382102 -0.000000 -0.000000
RightUpLeg 33.482783 19.417022 -16.786780
RightLeg 58.052225 -0.000000 -0.000000
RightFoot 55.388368 10.717821 0.791479
RightToeBase 6.429318 -0.000000 -0.000000
734
root 0.628509 33.991573 -6.774056 -1.769432 51.588028 -108.877008
Spine -48.364225 -11.103095 34.964915
Head -12.152370 32.724781 32.890959
LeftShoulder -25.504166 38.481123 29.867102
LeftArm 77.901798 -68.419359 -72.550298
LeftForeArm 16.355257 0.000000 12.411014
LeftHand 7.475553 -0.000000 15.925211
LeftHandThumb1 -26.253704 0.000000 33.147579
RightShoulder -23.694700 -5.588047 -28.141392
RightArm -22.154892 36.463424 20.922364
RightForeArm 59.777195 -0.000000 -2.481049
RightHand 2.799459 -0.000000 14.373869
RightHandThumb1 -24.326973 -0.000000 -32.862282
LeftUpLeg -98.691245 40.668240 9.469799
LeftLeg -14.460990 -0.000000 0.000000
LeftFoot 5.451855 8.051174 -27.659962
LeftToeBase 0.762557 -0.000000 -0.000000
RightUpLeg 33.470520 19.435719 -16.772452
RightLeg 58.025597 -0.000000 -0.000000
RightFoot 55.385824 10.696485 0.792819
RightToeBase 6.310126 -0.000000 -0.000000
735
root 0.633811 33.997296 -6.768828 -1.772028 51.582650 -108.966693
Spine -48.453252 -11.099374 34.939471
Head -12.158188 32.685335 33.004583
LeftShoulder -25.457055 38.487794 29.944839
LeftArm 77.882227 -68.438973 -72.369185
LeftForeArm 16.412083 0.000000 12.480436
LeftHand 7.484592 -0.000000 16.060100
LeftHandThumb1 -26.253704 0.000000 33.147579
RightShoulder -23.670705 -5.544260 -28.176246
RightArm -22.133051 36.366055 20.900342
RightForeArm 59.774765 -0.000000 -2.557125
RightHand 2.810730 -0.000000 14.387683
RightHandThumb1 -24.326973 -0.000000 -32.862282
LeftUpLeg -98.947034 40.677994 9.174671
LeftLeg -14.482520 -0.000000 0.000000
LeftFoot 5.514916 7.845264 -28.378673
LeftToeBase 1.142986 -0.000000 -0.000000
RightUpLeg 33.468802 19.439293 -16.772340
RightLeg 58.002787 -0.000000 -0.000000
RightFoot 55.333375 10.575302 0.813474
RightToeBase 6.553188 -0.000000 -0.000000
736
root 0.637987 33.999953 -6.762918 -1.803047 51.590139 -109.050448
Spine -48.514705 -11.116162 34.902044
Head -12.174812 32.625886 33.102326
LeftShoulder -25.423866 38.496250 29.985936
LeftArm 77.809949 -68.467268 -72.097460
LeftForeArm 16.406615 -0.000000 12.536907
LeftHand 7.495236 0.000000 16.188919
LeftHandThumb1 -26.253704 0.000000 33.147579
RightShoulder -23.653763 -5.520938 -28.207623
RightArm -22.140208 36.322319 20.862157
RightForeArm 59.782688 -0.000000 -2.588905
RightHand 2.811663 0.000000 14.424771
RightHandThumb1 -24.326973 -0.000000 -32.862282
LeftUpLeg -99.164722 40.674385 8.908375
LeftLeg -14.508196 -0.000000 0.000000
LeftFoot 5.552379 7.641220 -29.156882
LeftToeBase 1.592253 -0.000000 -0.000000
RightUpLeg 33.522736 19.427890 -16.777001
RightLeg 57.948880 -0.000000 -0.000000
RightFoot 55.285347 10.589704 0.721155
RightToeBase 6.530621 -0.000000 -0.000000
737
root 0.642086 34.003753 -6.755875 -1.812473 51.606358 -109.133988
Spine -48.605529 -11.127815 34.852542
Head -12.175330 32.567709 33.209497
LeftShoulder -25.427785 38.570712 29.970473
LeftArm 77.983256 -68.522056 -72.019903
LeftForeArm 16.374224 -0.000000 12.588227
LeftHand 7.555911 0.000000 16.203269
LeftHandThumb1 -26.253704 0.000000 33.147579
RightShoulder -23.636135 -5.542194 -28.220649
RightArm -22.164486 36.337140 20.802582
RightForeArm 59.737603 -0.000000 -2.603082
RightHand 2.757018 0.000000 14.453475
RightHandThumb1 -24.326973 -0.000000 -32.862282
LeftUpLeg -99.435283 40.662682 8.586964
LeftLeg -14.535653 -0.000000 0.000000
LeftFoot 5.672225 7.423412 -29.842190
LeftToeBase 1.899129 -0.000000 -0.000000
RightUpLeg 33.552156 19.390382 -16.804148
RightLeg 57.898761 -0.000000 -0.000000
RightFoot 55.278243 10.549863 0.698881
RightToeBase 6.638153 -0.000000 -0.000000
738
root 0.644772 34.005971 -6.748561 -1.843422 51.606468 -109.221205
Spine -48.661355 -11.141255 34.804233
Head -12.206297 32.492193 33.305417
LeftShoulder -25.394175 38.539892 30.020946
LeftArm 77.886203 -68.560092 -71.733443
LeftForeArm 16.442223 0.000000 12.668472
LeftHand 7.616298 -0.000000 16.124117
LeftHandThumb1 -26.253704 0.000000 33.147579
RightShoulder -23.619492 -5.577105 -28.249527
RightArm -22.169178 36.360308 20.793106
RightForeArm 59.713972 -0.000000 -2.612616
RightHand 2.770119 0.000000 14.434867
RightHandThumb1 -24.326973 -0.000000 -32.862282
LeftUpLeg -99.632228 40.665442 8.330791
LeftLeg -14.607392 -0.000000 0.000000
LeftFoot 5.893105 7.258782 -30.282498
LeftToeBase 1.857824 -0.000000 -0.000000
RightUpLeg 33.596898 19.367139 -16.838120
RightLeg 57.843876 -0.000000 -0.000000
RightFoot 55.256927 10.599709 0.635704
RightToeBase 6.666435 -0.000000 -0.000000
739
root 0.647987 34.007325 -6.739285 -1.889014 51.590146 -109.330465
Spine -48.712942 -11.138177 34.755715
Head -12.264645 32.338969 33.404182
LeftShoulder -25.329757 38.523132 30.145112
LeftArm 77.856011 -68.581326 -71.638534
LeftForeArm 16.584716 -0.000000 12.846480
LeftHand 7.531506 -0.000000 16.289380
LeftHandThumb1 -26.253704 0.000000 33.147579
RightShoulder -23.601560 -5.555323 -28.304172
RightArm -22.237001 36.361414 20.744675
RightForeArm 59.635516 -0.000000 -2.582572
RightHand 2.770619 -0.000000 14.306418
RightHandThumb1 -24.326973 -0.000000 -32.862282
LeftUpLeg -99.782760 40.680086 8.132041
LeftLeg -14.726568 -0.000000 0.000000
LeftFoot 6.252507 7.143020 -30.198869
LeftToeBase 1.419811 -0.000000 -0.000000
RightUpLeg 33.653397 19.363506 -16.847904
RightLeg 57.767849 -0.000000 -0.000000
RightFoot 55.274865 10.577701 0.691527
RightToeBase 6.569569 -0.000000 -0.000000
